<?xml version="1.0" standalone="no"?>
<!DOCTYPE svg PUBLIC "-//W3C//DTD SVG 20010904//EN"
 "http://www.w3.org/TR/2001/REC-SVG-20010904/DTD/svg10.dtd">
<svg version="1.0" xmlns="http://www.w3.org/2000/svg"
 width="512.000000pt" height="512.000000pt" viewBox="0 0 512.000000 512.000000"
 preserveAspectRatio="xMidYMid meet">

<g transform="translate(0.000000,512.000000) scale(0.100000,-0.100000)"
fill="#000000" stroke="none">
<path d="M2395 5105 c-221 -40 -430 -154 -624 -340 -57 -55 -131 -133 -164
-173 -199 -243 -375 -590 -463 -911 -66 -241 -78 -331 -79 -581 0 -196 3 -240
23 -338 65 -321 220 -619 435 -841 87 -88 226 -198 314 -248 l65 -36 -31 -20
c-18 -10 -71 -34 -119 -52 l-87 -32 -26 29 c-16 16 -37 28 -52 28 -36 0 -341
-106 -412 -143 -80 -42 -211 -173 -257 -257 -20 -36 -47 -96 -59 -135 -23 -68
-23 -82 -27 -533 l-3 -462 30 -30 c47 -47 111 -35 137 25 l14 35 1555 0 c1518
0 1555 0 1555 -19 0 -31 32 -61 72 -68 32 -5 41 -1 68 26 l31 31 -3 457 c-4
510 -4 510 -75 653 -48 95 -179 231 -268 277 -33 17 -178 72 -322 121 -144 50
-273 97 -288 104 l-26 14 71 48 c142 97 321 287 423 449 99 156 188 381 228
575 26 125 36 410 20 548 -53 454 -258 943 -539 1286 -136 167 -337 335 -497
415 -197 99 -422 135 -620 98z m420 -1160 c249 -43 488 -157 655 -312 l60 -55
0 -318 c0 -341 -8 -422 -53 -555 -49 -144 -122 -260 -231 -370 -118 -119 -277
-212 -441 -257 -115 -31 -374 -32 -488 0 -285 79 -513 271 -638 537 -21 45
-46 114 -56 154 -19 79 -40 109 -83 117 -21 5 -29 13 -34 36 -3 17 -6 150 -6
295 l0 265 103 103 c149 150 303 245 501 310 93 30 231 59 331 69 74 8 289 -3
380 -19z"/>
<path d="M2455 3556 c-70 -22 -120 -53 -164 -101 -56 -60 -83 -124 -89 -207
-4 -61 -3 -68 21 -92 18 -18 37 -26 60 -26 52 0 76 25 87 93 20 128 102 191
224 173 90 -14 156 -92 156 -184 0 -67 -24 -104 -120 -186 -108 -91 -149 -163
-153 -263 -2 -53 1 -65 22 -87 18 -19 35 -26 61 -26 51 0 78 32 90 104 11 70
19 80 114 162 126 107 162 183 154 321 -3 48 -13 96 -25 124 -24 55 -83 123
-134 155 -80 50 -215 68 -304 40z"/>
<path d="M2519 2495 c-29 -16 -52 -66 -42 -93 3 -9 15 -27 26 -39 40 -45 118
-23 140 39 10 28 -13 78 -44 93 -34 18 -47 18 -80 0z"/>
</g>
</svg>
